<svg width="27" height="28" viewBox="0 0 27 28" fill="none" xmlns="http://www.w3.org/2000/svg">
<path d="M9 13.8999C5.27738 13.8999 2.25 10.8725 2.25 7.1499C2.25 3.42728 5.27738 0.399902 9 0.399902C12.7226 0.399902 15.75 3.42728 15.75 7.1499C15.75 10.8725 12.7226 13.8999 9 13.8999ZM25.3125 20.6499C25.3125 20.1324 25.2124 19.643 25.0672 19.1728L26.6602 18.2548L25.5375 16.3052L23.9501 17.2198C23.2695 16.4863 22.383 15.9542 21.375 15.7235V13.8999H19.125V15.7235C18.117 15.9542 17.2294 16.4863 16.5499 17.2198L14.9625 16.3052L13.8398 18.2548L15.4328 19.1728C15.2876 19.643 15.1875 20.1324 15.1875 20.6499C15.1875 21.1674 15.2876 21.6568 15.4328 22.127L13.8398 23.045L14.9625 24.9947L16.5499 24.08C17.2305 24.8135 18.117 25.3457 19.125 25.5763V27.3999H21.375V25.5763C22.383 25.3457 23.2706 24.8135 23.9501 24.08L25.5375 24.9947L26.6602 23.045L25.0672 22.127C25.2124 21.6568 25.3125 21.1674 25.3125 20.6499ZM20.25 22.3374C19.3196 22.3374 18.5625 21.5803 18.5625 20.6499C18.5625 19.7195 19.3196 18.9624 20.25 18.9624C21.1804 18.9624 21.9375 19.7195 21.9375 20.6499C21.9375 21.5803 21.1804 22.3374 20.25 22.3374ZM11.25 20.6499C11.25 19.0085 11.6966 17.4752 12.4639 16.1499H5.0625C2.27138 16.1499 0 18.4213 0 21.2124V27.3999H14.3111C12.438 25.7507 11.25 23.342 11.25 20.6499Z" fill="black"/>
</svg>
