<svg
    xmlns="http://www.w3.org/2000/svg"
    viewBox="0 0 64 64"
    width="64"
    height="64"
    fill="none"
>
    <!-- Палец -->
    <path
        d="M32 44C32 41.79 34.79 39 37 39C38.31 39 39.48 39.41 40.29 40.12L42.71 42.54C43.53 43.36 44.47 44 45.47 44C46.68 44 47.88 43.42 48.29 42.24L49.71 38.12C50.17 36.93 49.56 35.57 48.38 35.13C46.77 34.3 45.47 33.34 44.42 32.19C43.36 31.02 42.56 29.64 42.18 28.12L40.94 23.99C40.49 22.43 38.96 21.58 37.35 22.03C36.73 22.23 36.23 22.89 36.04 23.56L35 29L32 34L30 29L31 25C31.19 24.33 31.85 23.88 32.52 23.72C34.54 23.27 35.96 21.9 35.96 19.93V14.07C35.96 13.16 36.87 12.27 37.78 12.27C38.68 12.27 39.59 13.16 39.59 14.07V18.93C39.59 19.53 40.01 20.01 40.58 20.26L43.57 21.52C44.13 21.75 44.75 21.56 45.15 20.99C45.55 20.42 45.38 19.65 44.82 19.36L41.83 18.1C41.56 17.94 41.3 17.65 41.3 17.33V14.07C41.3 13.19 40.38 12.3 39.5 12.3C38.61 12.3 37.69 13.19 37.69 14.07V18.57C37.69 19.39 37.15 19.91 36.33 19.93L32 20.07V44Z"
        fill="#00BFFF"
    />
    <!-- Ладонь -->
    <path
        d="M26 51C23 51 21 48 21 48L20 46L19 45C19 45 16 47 14 47C13 47 12 46 12 45V43C12 42 13 41 14 41C16 41 19 39 19 39L20 37L21 35L23 33L25 32L27 33L28 34L29 35L30 37L31 39C31 39 34 41 35 41C36 41 37 42 37 43V45C37 46 36 47 35 47L34 48L33 49C33 49 31 51 28 51L26 51Z"
        fill="#FFD700"
    />
    <!-- Середина пальца -->
    <path
        d="M35 40C34.31 40 33.53 40.41 32.71 41.12C31.89 41.84 31.62 42.97 31.92 44.1L32.71 44.88C33.16 45.34 34.06 45.15 34.41 44.69C34.76 44.23 34.73 43.47 34.28 43.11C34.03 42.85 33.66 42.7 33.32 42.74C32.99 42.79 32.67 42.94 32.47 43.21C32.28 43.47 32.2 43.8 32.25 44.14L32.71 44.88C33.16 45.34 34.06 45.15 34.41 44.69C34.76 44.23 34.73 43.47 34.28 43.11C34.03 42.85 33.66 42.7 33.32 42.74C32.99 42.79 32.67 42.94 32.47 43.21C32.28 43.47 32.2 43.8 32.25 44.14L32.71 44.88"
        fill="black"
    />
</svg>
