<svg width="20" height="21" viewBox="0 0 20 21" fill="none" xmlns="http://www.w3.org/2000/svg">
<path d="M3.75122 6.57173C3.36804 6.57282 2.98844 6.49713 2.63441 6.34905C2.28038 6.20096 1.95895 5.98342 1.68872 5.70902L0.41789 4.56856C0.170355 4.34534 0.0207551 4.03194 0.00200149 3.69732C-0.00728437 3.53163 0.0158328 3.36571 0.0700331 3.20904C0.124233 3.05238 0.208455 2.90802 0.31789 2.78423C0.427325 2.66044 0.55983 2.55963 0.707839 2.48756C0.855848 2.41548 1.01646 2.37356 1.18051 2.36418C1.51183 2.34524 1.83702 2.46001 2.08456 2.68323L3.40456 3.87335C3.44754 3.92465 3.50047 3.9665 3.5601 3.99632C3.61973 4.02615 3.68477 4.0433 3.75122 4.04673C3.86152 4.04671 3.9673 4.00252 4.04539 3.92385L7.05622 1.02851C7.29797 0.807574 7.61562 0.690773 7.94142 0.703023C8.26723 0.715273 8.5754 0.855603 8.80022 1.09409C9.02503 1.33257 9.1487 1.65033 9.14484 1.97959C9.14098 2.30886 9.0099 2.62357 8.77956 2.85661L5.79122 5.73006C5.52273 5.999 5.20432 6.21178 4.85426 6.35621C4.5042 6.50064 4.12936 6.57388 3.75122 6.57173ZM20.0012 3.6259C20.0012 3.29106 19.8695 2.96994 19.6351 2.73318C19.4007 2.49641 19.0827 2.3634 18.7512 2.3634H12.0846C11.753 2.3634 11.4351 2.49641 11.2007 2.73318C10.9663 2.96994 10.8346 3.29106 10.8346 3.6259C10.8346 3.96073 10.9663 4.28186 11.2007 4.51862C11.4351 4.75539 11.753 4.8884 12.0846 4.8884H18.7512C19.0827 4.8884 19.4007 4.75539 19.6351 4.51862C19.8695 4.28186 20.0012 3.96073 20.0012 3.6259ZM5.79122 12.4634L8.77956 9.58995C9.0099 9.35691 9.14098 9.0422 9.14484 8.71293C9.1487 8.38366 9.02503 8.0659 8.80022 7.82742C8.5754 7.58894 8.26723 7.44861 7.94142 7.43636C7.61562 7.42411 7.29797 7.54091 7.05622 7.76185L4.04539 10.6572C3.96725 10.7361 3.86129 10.7804 3.75081 10.7804C3.64032 10.7804 3.53436 10.7361 3.45622 10.6572L2.13539 9.3223C1.90089 9.08546 1.58285 8.9524 1.25122 8.9524C0.919597 8.9524 0.601552 9.08546 0.367057 9.3223C0.132561 9.55914 0.000822983 9.88036 0.000822983 10.2153C0.000822983 10.5503 0.132561 10.8715 0.367057 11.1083L1.68872 12.4424C2.23203 12.9908 2.96759 13.3006 3.73569 13.3045C4.5038 13.3085 5.24244 13.0062 5.79122 12.4634ZM20.0012 10.3592C20.0012 10.0244 19.8695 9.70327 19.6351 9.46651C19.4007 9.22974 19.0827 9.09673 18.7512 9.09673H12.0846C11.753 9.09673 11.4351 9.22974 11.2007 9.46651C10.9663 9.70327 10.8346 10.0244 10.8346 10.3592C10.8346 10.6941 10.9663 11.0152 11.2007 11.252C11.4351 11.4887 11.753 11.6217 12.0846 11.6217H18.7512C19.0827 11.6217 19.4007 11.4887 19.6351 11.252C19.8695 11.0152 20.0012 10.6941 20.0012 10.3592ZM5.79122 19.1967L8.77956 16.3233C9.0099 16.0902 9.14098 15.7755 9.14484 15.4463C9.1487 15.117 9.02503 14.7992 8.80022 14.5608C8.5754 14.3223 8.26723 14.1819 7.94142 14.1697C7.61562 14.1574 7.29797 14.2742 7.05622 14.4952L4.04539 17.3905C3.9673 17.4692 3.86152 17.5134 3.75122 17.5134C3.68477 17.51 3.61973 17.4928 3.5601 17.463C3.50047 17.4332 3.44754 17.3913 3.40456 17.34L2.08456 16.1499C1.83702 15.9267 1.51183 15.8119 1.18051 15.8309C0.849199 15.8498 0.538904 16.0009 0.31789 16.2509C0.0968764 16.5009 -0.0167521 16.8294 0.00200149 17.164C0.0207551 17.4986 0.170355 17.812 0.41789 18.0352L1.68706 19.1757C2.23043 19.7246 2.96634 20.0347 3.73486 20.0387C4.50337 20.0426 5.24236 19.7401 5.79122 19.1967ZM20.0012 17.0926C20.0012 16.7577 19.8695 16.4366 19.6351 16.1998C19.4007 15.9631 19.0827 15.8301 18.7512 15.8301H12.0846C11.753 15.8301 11.4351 15.9631 11.2007 16.1998C10.9663 16.4366 10.8346 16.7577 10.8346 17.0926C10.8346 17.4274 10.9663 17.7485 11.2007 17.9853C11.4351 18.2221 11.753 18.3551 12.0846 18.3551H18.7512C19.0827 18.3551 19.4007 18.2221 19.6351 17.9853C19.8695 17.7485 20.0012 17.4274 20.0012 17.0926Z" fill="currentColor"/>
</svg>
