<svg width="27" height="26" viewBox="0 0 27 26" fill="none" xmlns="http://www.w3.org/2000/svg">
<path d="M24.75 0.524902H11.2916V3.8999H9V0.524902H6.75V3.8999H4.45837V0.524902H2.25C1.65326 0.524902 1.08097 0.761955 0.65901 1.18391C0.237053 1.60587 0 2.17817 0 2.7749L0 5.0249C0 5.62164 0.237053 6.19394 0.65901 6.61589C1.08097 7.03785 1.65326 7.2749 2.25 7.2749H24.75C25.3467 7.2749 25.919 7.03785 26.341 6.61589C26.7629 6.19394 27 5.62164 27 5.0249V2.7749C27 2.17817 26.7629 1.60587 26.341 1.18391C25.919 0.761955 25.3467 0.524902 24.75 0.524902Z" fill="black"/>
<path d="M24.75 9.5249H11.2916V12.8999H9V9.5249H6.75V12.8999H4.45837V9.5249H2.25C1.65326 9.5249 1.08097 9.76196 0.65901 10.1839C0.237053 10.6059 0 11.1782 0 11.7749L0 14.0249C0 14.6216 0.237053 15.1939 0.65901 15.6159C1.08097 16.0378 1.65326 16.2749 2.25 16.2749H24.75C25.3467 16.2749 25.919 16.0378 26.341 15.6159C26.7629 15.1939 27 14.6216 27 14.0249V11.7749C27 11.1782 26.7629 10.6059 26.341 10.1839C25.919 9.76196 25.3467 9.5249 24.75 9.5249Z" fill="black"/>
<path d="M24.75 18.5249H11.2916V21.8999H9V18.5249H6.75V21.8999H4.45837V18.5249H2.25C1.65326 18.5249 1.08097 18.762 0.65901 19.1839C0.237053 19.6059 0 20.1782 0 20.7749L0 23.0249C0 23.6216 0.237053 24.1939 0.65901 24.6159C1.08097 25.0378 1.65326 25.2749 2.25 25.2749H24.75C25.3467 25.2749 25.919 25.0378 26.341 24.6159C26.7629 24.1939 27 23.6216 27 23.0249V20.7749C27 20.1782 26.7629 19.6059 26.341 19.1839C25.919 18.762 25.3467 18.5249 24.75 18.5249Z" fill="black"/>
</svg>
