<svg width="72" height="30" viewBox="0 0 72 30" fill="none" xmlns="http://www.w3.org/2000/svg">
<path d="M15.4508 7.82787C11.5984 7.82787 9.67213 9.46721 9.67213 12.7459V12.8689H19.8361V20.1639H9.67213V29.3443H0V12.9508C0 8.79782 1.27049 5.60109 3.81148 3.36066C6.35246 1.12022 9.95902 0 14.6311 0C16.2978 0 17.8689 0.163934 19.3443 0.491802C20.8197 0.79235 22.0902 1.21585 23.1557 1.7623L20.3689 9.05738C19.6038 8.64754 18.7842 8.347 17.9098 8.15574C17.0628 7.93716 16.2432 7.82787 15.4508 7.82787ZM71.5574 0.655737V17.2541C71.5574 21.3251 70.3142 24.4672 67.8279 26.6803C65.3689 28.8934 61.9126 30 57.459 30C53.7978 30 50.8333 29.0984 48.5656 27.2951C46.3251 29.0984 43.3607 30 39.6721 30C35.2459 30 31.7896 28.8934 29.3033 26.6803C26.8443 24.4672 25.6148 21.3251 25.6148 17.2541V0.655737H35.2869V16.9672C35.2869 18.7158 35.6284 20.0273 36.3115 20.9016C36.9945 21.7486 38.0601 22.1721 39.5082 22.1721C40.9563 22.1721 42.0219 21.7486 42.7049 20.9016C43.388 20.0273 43.7295 18.7158 43.7295 16.9672V0.655737H53.4016V16.9672C53.4016 18.7158 53.7432 20.0273 54.4262 20.9016C55.1366 21.7486 56.2159 22.1721 57.6639 22.1721C59.112 22.1721 60.1776 21.7486 60.8607 20.9016C61.5437 20.0273 61.8853 18.7158 61.8853 16.9672V0.655737H71.5574Z" fill="white"/>
</svg>
