<svg width="22" height="14" viewBox="0 0 22 14" fill="none" xmlns="http://www.w3.org/2000/svg">
<g clip-path="url(#clip0_158_151)">
<path d="M13.6943 1.92529H7.86475V12.408H13.6943V1.92529Z" fill="#FF5F00"/>
<path d="M8.23485 7.16667C8.23393 6.15711 8.46255 5.16058 8.90341 4.2525C9.34427 3.34443 9.98581 2.54863 10.7795 1.92534C9.79664 1.15231 8.61629 0.67157 7.37332 0.538075C6.13036 0.40458 4.87494 0.623708 3.75055 1.17042C2.62616 1.71714 1.67817 2.56938 1.01494 3.62973C0.351711 4.69007 0 5.91575 0 7.16667C0 8.41758 0.351711 9.64326 1.01494 10.7036C1.67817 11.764 2.62616 12.6162 3.75055 13.1629C4.87494 13.7096 6.13036 13.9288 7.37332 13.7953C8.61629 13.6618 9.79664 13.181 10.7795 12.408C9.98582 11.7847 9.34428 10.9889 8.90342 10.0808C8.46256 9.17275 8.23394 8.17622 8.23485 7.16667Z" fill="#EB001B"/>
<path d="M21.5584 7.16667C21.5585 8.41756 21.2068 9.64324 20.5436 10.7036C19.8804 11.7639 18.9325 12.6162 17.8081 13.1629C16.6837 13.7096 15.4283 13.9288 14.1854 13.7953C12.9424 13.6618 11.7621 13.181 10.7793 12.408C11.5723 11.7841 12.2133 10.9881 12.6541 10.0802C13.0949 9.17228 13.3239 8.17606 13.3239 7.16667C13.3239 6.15727 13.0949 5.16105 12.6541 4.25312C12.2133 3.34519 11.5723 2.54926 10.7793 1.92533C11.7621 1.1523 12.9424 0.671567 14.1854 0.538073C15.4283 0.40458 16.6837 0.623717 17.8081 1.17044C18.9325 1.71716 19.8804 2.5694 20.5436 3.62975C21.2068 4.6901 21.5585 5.91577 21.5584 7.16667Z" fill="#F79E1B"/>
<path d="M20.9228 11.2978V11.0832H21.0093V11.0395H20.7891V11.0832H20.8756V11.2978H20.9228ZM21.3504 11.2978V11.0391H21.2829L21.2053 11.217L21.1276 11.0391H21.06V11.2978H21.1077V11.1026L21.1805 11.2709H21.23L21.3028 11.1022V11.2978H21.3504Z" fill="#F79E1B"/>
</g>
<defs>
<clipPath id="clip0_158_151">
<rect width="22" height="14" fill="white"/>
</clipPath>
</defs>
</svg>
