<svg width="77" height="21" viewBox="0 0 77 21" fill="none" xmlns="http://www.w3.org/2000/svg">
<g clip-path="url(#clip0_158_112)">
<path d="M22.2423 9.85538L22.5348 8.92475L21.567 8.95488C21.4853 8.95488 20.891 8.93813 20.3144 8.52262C20.3574 8.52683 20.4003 8.53267 20.4442 8.53267C21.0377 8.53267 21.6117 8.1775 21.8419 7.66983L22.2583 6.75258C21.7365 6.75929 21.2594 6.69396 21.2594 6.69396C21.2551 6.69308 20.8792 6.64538 20.4442 6.20388C20.1322 5.88725 19.7462 5.71967 19.328 5.71967C19.1452 5.71967 18.9816 5.75233 18.8408 5.79675C18.8627 5.72221 18.8838 5.64679 18.8957 5.56888C19.0288 4.71025 18.4725 4.05516 18.4725 4.05605L17.745 3.16055L17.294 4.21267C17.2922 4.21603 17.1785 4.46234 16.9745 4.58293C16.9129 4.27382 16.762 3.9262 16.4392 3.59362C15.8305 2.96701 15.0895 2.87402 14.7017 2.87402C14.5222 2.87402 14.3941 2.8933 14.3628 2.89832L13.4845 3.07009C13.535 2.8749 13.643 2.5356 13.8402 2.22985L14.325 1.47929L13.1051 1.61751L12.7165 0.79738L11.9646 1.18274L11.2691 0.5L10.5753 1.18274L9.82083 0.79738L9.43304 1.61751L8.21412 1.47929L8.69962 2.22985C8.89692 2.5356 9.00483 2.87402 9.05458 3.06921L8.21658 2.90504L8.18796 2.90003C8.14579 2.8933 8.01854 2.87402 7.83812 2.87402C7.45033 2.87402 6.70937 2.96784 6.10237 3.59362C5.77867 3.92537 5.62779 4.27382 5.56542 4.58293C5.36312 4.46399 5.25012 4.22104 5.25012 4.22104L4.79829 3.16303L4.05902 4.06442C3.96878 4.18082 3.52288 4.79658 3.64425 5.57058C3.65692 5.64767 3.67713 5.72304 3.69906 5.79763C3.55913 5.75321 3.39557 5.72054 3.21267 5.72054C2.79453 5.72054 2.40845 5.88808 2.0957 6.20475C1.66236 6.64454 1.28807 6.69396 1.29149 6.69396C1.29149 6.69396 0.896104 6.76429 0.284102 6.75338L0.698 7.67071C0.928167 8.17921 1.50304 8.53354 2.0957 8.53354C2.14038 8.53354 2.18335 8.52763 2.2272 8.52346C1.65228 8.93896 1.05796 8.95571 0.986287 8.95654L0 8.92475L0.298425 9.85454C0.448492 10.3338 0.950037 11.1279 1.9111 11.2133C1.80653 11.6489 1.57471 12.1365 1.06556 12.3467L0.331315 12.6474L0.731712 13.3402C0.957642 13.7138 1.48789 14.1511 2.24318 14.1511C2.40675 14.1503 2.56436 14.1343 2.71613 14.1025C2.75492 14.2734 2.80378 14.4443 2.86113 14.6135C3.08618 15.2786 2.89231 15.7427 2.88978 15.7478L2.52728 16.5025L3.33657 16.7145C3.3467 16.7178 3.59114 16.784 3.89717 16.784C4.03627 16.784 4.16858 16.7698 4.29337 16.7405C4.38775 16.7186 4.478 16.6893 4.56479 16.6541C4.66933 16.8409 4.79662 17.011 4.945 17.1634C5.46346 17.692 6.19771 17.9601 7.12833 17.9601H7.13171L7.796 17.9517L6.42358 18.518L7.46554 19.0181C7.84404 19.2016 8.29333 19.4185 8.75025 19.5844L8.62042 19.9379L8.97954 20.1004C9.01154 20.1146 9.70196 20.4221 10.8502 20.4874C10.8502 20.4874 11.1275 20.5 11.28 20.5C11.4326 20.5 11.7066 20.4866 11.7066 20.4866C12.8472 20.4196 13.5325 20.1155 13.5646 20.1004L13.9245 19.9371L13.793 19.5828C14.2634 19.4118 14.7287 19.1865 15.0912 19.0106L16.1137 18.5172L14.7455 17.9501L15.4124 17.9585C16.3439 17.9585 17.079 17.6904 17.5965 17.161C17.7441 17.0093 17.8714 16.8393 17.9768 16.6525C18.0636 16.6877 18.1546 16.717 18.249 16.7388C18.373 16.768 18.5053 16.7823 18.6444 16.7823C18.9453 16.7823 19.1924 16.7162 19.1991 16.7145L20.0117 16.5009L19.6577 15.7603C19.6492 15.741 19.4554 15.2778 19.6805 14.6118C19.7377 14.4418 19.7858 14.2709 19.8246 14.1008C19.9772 14.1327 20.1365 14.1494 20.3009 14.1494C21.2627 14.1494 21.7238 13.4768 21.8132 13.331L22.2094 12.6458L21.4752 12.3459C20.9652 12.1356 20.7342 11.6472 20.6305 11.2125C21.578 11.132 22.0872 10.3379 22.2423 9.85538ZM9.11858 3.39005L9.10854 3.39259L9.11696 3.38168L9.11858 3.39005Z" fill="white"/>
<path d="M11.2698 3.34912C10.4925 3.34995 9.91005 3.60293 9.78271 3.9003L11.2698 4.48338L12.7568 3.9003C12.6303 3.60293 12.0478 3.34995 11.2698 3.34912Z" fill="white"/>
<path d="M11.2851 18.7836H11.2833H11.2707H11.2563H11.2555C10.7843 18.7869 10.136 18.6906 9.82327 18.6001L9.44727 19.6112C9.69514 19.6992 10.5348 19.8667 11.2707 19.8667C12.0049 19.8667 12.8454 19.6983 13.0924 19.6112L12.7172 18.6001C12.4037 18.6914 11.7562 18.7869 11.2851 18.7836Z" fill="white"/>
<path d="M14.1302 17.7783C13.8503 17.9358 13.2256 18.172 12.8623 18.2818L13.1675 19.1169C13.7297 18.9644 14.1933 18.7861 14.577 18.5951L13.9438 18.3856L14.1302 17.7783Z" fill="white"/>
<path d="M8.41066 17.7783L8.59778 18.3856L7.96387 18.5951C8.34658 18.7861 8.81274 18.9644 9.37249 19.1169L9.67766 18.2818C9.31599 18.172 8.69049 17.9349 8.41066 17.7783Z" fill="white"/>
<path d="M11.2702 2.38232C11.8561 2.38232 12.431 2.52137 12.8727 2.76603C12.9132 2.63111 12.9697 2.46777 13.0464 2.29687L12.8795 2.31698L12.7042 2.33544L12.63 2.17711L12.4066 1.70801L11.9994 1.91906L11.841 1.9995L11.7145 1.87554L11.2719 1.43994L10.8302 1.87554L10.7037 1.9995L10.5453 1.91906L10.1356 1.70801L9.91471 2.17711L9.83887 2.33544L9.6635 2.31698L9.49658 2.29687C9.57333 2.46859 9.62896 2.63111 9.67025 2.76603C10.1128 2.52137 10.686 2.38232 11.2702 2.38232Z" fill="white"/>
<path d="M20.2148 7.80387C20.2907 7.82983 20.3682 7.84154 20.445 7.84154C20.7762 7.84154 21.0966 7.62879 21.207 7.385C21.207 7.385 20.5992 7.34816 19.9459 6.68887C19.7377 6.47525 19.5177 6.41162 19.3288 6.41162C19.0355 6.41162 18.8154 6.56575 18.8154 6.56575C19.6045 6.98291 19.7655 7.65308 20.2148 7.80387Z" fill="white"/>
<path d="M2.09523 7.84154C2.17191 7.84154 2.24948 7.82983 2.32369 7.80387C2.77466 7.65308 2.93652 6.98291 3.72558 6.56575C3.72558 6.56575 3.50467 6.41162 3.21302 6.41162C3.02334 6.41162 2.80331 6.47525 2.59424 6.68887C1.9418 7.34816 1.33398 7.385 1.33398 7.385C1.44273 7.62879 1.76391 7.84154 2.09523 7.84154Z" fill="white"/>
<path d="M20.4295 10.5272C20.443 10.528 20.4548 10.528 20.4691 10.528C21.2961 10.528 21.5768 9.64752 21.5768 9.64752H21.5608C21.4091 9.64752 20.1791 9.6124 19.31 8.51415C18.7376 7.79211 18.2689 7.1571 17.3424 6.90744L17.2514 6.89152L17.2311 6.7994C17.2059 6.65865 17.3028 6.52715 17.5229 6.38473C18.8008 5.55294 17.9334 4.49238 17.9334 4.49238C17.9334 4.49238 17.5684 5.34098 16.7515 5.34098C16.7321 5.34098 16.711 5.34011 16.6908 5.34011C16.5981 5.33511 16.5087 5.33173 16.4185 5.31252L16.2676 5.28315C16.2676 5.28315 16.5003 4.65407 15.9389 4.07606C15.5156 3.63963 15.0006 3.56592 14.703 3.56592C14.5529 3.56592 14.4577 3.58514 14.4577 3.58514C14.7401 3.95205 14.9441 4.56025 14.6179 4.93552C14.3364 5.25802 13.6484 5.27394 13.6484 5.75477C13.6484 5.95835 13.8398 6.19627 14.1837 6.40986C15.2181 7.0574 16.2449 7.91602 16.6714 9.06706C17.205 10.5029 16.604 11.4554 15.7458 12.0015C15.7458 12.0015 16.0147 12.2478 16.4051 12.2788C16.4843 12.2863 16.5619 12.2896 16.6344 12.2896C17.4579 12.2896 17.8836 11.906 17.8836 11.906C17.8836 11.906 17.8136 12.4362 17.3846 12.9288C16.9892 13.3837 16.4699 13.6509 15.6784 13.6626C15.6784 13.6626 15.6531 14.0279 16.0038 14.3437C16.228 14.5431 16.7464 14.6084 16.7464 14.6084C16.7464 14.6084 15.7761 14.8036 15.6691 16.2277C15.6109 16.9991 15.4128 17.2672 15.4128 17.2672H15.4306C17.6821 17.2672 17.624 15.3481 17.624 15.3481C17.624 15.3481 17.7808 15.916 18.4088 16.0643C18.4846 16.0844 18.5656 16.092 18.6431 16.092C18.8455 16.092 19.0208 16.0451 19.0208 16.0451C19.0208 16.0451 18.6921 15.3556 19.0183 14.3914C19.2889 13.5914 19.2451 12.9984 19.2451 12.9984C19.2451 12.9984 19.5485 13.4541 20.3005 13.4583H20.3081C20.9344 13.4583 21.2075 12.9866 21.2075 12.9866C19.7062 12.3676 19.8546 10.3689 19.8546 10.3689C19.8546 10.3689 20.0493 10.5129 20.4295 10.5272ZM19.9776 12.6146C19.3673 12.3156 18.9812 11.5215 18.8876 11.235C18.7864 12.8099 18.0126 13.9031 17.1081 14.9552C16.6385 15.5005 16.475 16.0308 16.475 16.0308C16.475 16.0308 16.5652 15.4302 16.9715 14.941C17.8154 13.9332 18.6171 12.6792 18.6769 11.2291C18.7182 10.2172 18.456 9.39627 18.0472 8.72027C18.2756 9.42477 18.2436 10.2876 17.4672 11.0926C17.4672 11.0926 19.0124 9.25215 16.8518 7.36569C15.9869 6.64781 15.0411 6.20465 14.5539 5.89052C16.314 6.46098 17.173 5.83269 17.173 5.83269C16.6107 6.31686 15.8832 6.30848 15.4322 6.23898C15.5544 6.29848 15.6818 6.36044 15.8191 6.43331C17.3028 7.23419 18.6364 8.55186 18.864 10.3772V10.3629C19.2096 12.1548 19.9776 12.6146 19.9776 12.6146Z" fill="white"/>
<path d="M5.79371 14.6084C5.79371 14.6084 6.31217 14.5439 6.53642 14.3437C6.88621 14.0279 6.86184 13.6626 6.86184 13.6626C6.06942 13.6517 5.55096 13.3837 5.15309 12.9297C4.72734 12.4371 4.65655 11.9068 4.65655 11.9068C4.65655 11.9068 5.08221 12.2905 5.905 12.2905C5.97921 12.2905 6.05592 12.2871 6.13513 12.2796C6.52546 12.2486 6.79521 12.0023 6.79521 12.0023C5.937 11.4561 5.33517 10.5029 5.86792 9.06706C6.29534 7.91685 7.32121 7.0574 8.35563 6.40986C8.69955 6.19627 8.89088 5.95915 8.89088 5.75477C8.89088 5.27394 8.20384 5.25802 7.92225 4.93552C7.59609 4.56025 7.80092 3.95122 8.08246 3.58514C8.08246 3.58514 7.98888 3.56592 7.83796 3.56592C7.54125 3.56592 7.02617 3.63963 6.603 4.07606C6.03988 4.65407 6.27342 5.28315 6.27342 5.28315L6.1225 5.31252C6.03234 5.33173 5.94209 5.33511 5.85021 5.34011C5.82917 5.34011 5.81059 5.34098 5.79038 5.34098C4.97184 5.34098 4.6085 4.49321 4.6085 4.49321C4.6085 4.49321 3.74105 5.55377 5.01817 6.38556C5.23821 6.52798 5.33434 6.65948 5.30905 6.80023L5.28875 6.8924L5.19605 6.90831C4.2713 7.15794 3.80176 7.7929 3.22937 8.51498C2.36191 9.61156 1.13367 9.64752 0.980296 9.64752H0.963379C0.963379 9.64752 1.24412 10.528 2.07109 10.528C2.08459 10.528 2.09637 10.528 2.1107 10.5272C2.49088 10.5137 2.68645 10.3689 2.68645 10.3689C2.68645 10.3689 2.83316 12.3667 1.33348 12.9866C1.33348 12.9866 1.60662 13.4583 2.23295 13.4583H2.24055C2.9933 13.4541 3.29597 12.9984 3.29597 12.9984C3.29597 12.9984 3.25212 13.5914 3.5219 14.3914C3.84809 15.3556 3.52102 16.0451 3.52102 16.0451C3.52102 16.0451 3.69637 16.092 3.89784 16.092C3.97623 16.092 4.05634 16.0844 4.13137 16.0643C4.7585 15.916 4.91617 15.3481 4.91617 15.3481C4.91617 15.3481 4.85884 17.2672 7.1105 17.2672H7.12646C7.12646 17.2672 6.92925 16.9991 6.87192 16.2277C6.76404 14.8036 5.79371 14.6084 5.79371 14.6084ZM5.43213 14.9552C4.52759 13.9031 3.75455 12.8099 3.65252 11.235C3.55898 11.5207 3.17455 12.3156 2.56426 12.6146C2.56426 12.6146 3.33134 12.1548 3.67615 10.3629V10.3772C3.90462 8.55273 5.23738 7.23419 6.72184 6.43331C6.85759 6.35961 6.98655 6.29765 7.10796 6.23898C6.65696 6.30848 5.92946 6.31686 5.36717 5.83269C5.36717 5.83269 6.22617 6.46098 7.9855 5.89052C7.4983 6.20465 6.55325 6.64781 5.68834 7.36569C3.52691 9.25215 5.07296 11.0926 5.07296 11.0926C4.29575 10.2867 4.26459 9.42477 4.493 8.72027C4.08333 9.3971 3.82198 10.2172 3.86412 11.2291C3.92312 12.6792 4.7248 13.9332 5.56696 14.941C5.97417 15.4294 6.06605 16.0308 6.06605 16.0308C6.06605 16.0308 5.90075 15.5005 5.43213 14.9552Z" fill="white"/>
<path d="M9.60541 7.59186C9.64245 7.63119 9.6787 7.67398 9.71333 7.71665C9.72174 7.72673 9.72928 7.73594 9.7377 7.74769C9.76978 7.79036 9.80266 7.83565 9.83387 7.88169C9.84057 7.8909 9.84737 7.90182 9.85491 7.91265C9.89287 7.96965 9.92828 8.02832 9.96366 8.08865C10.2882 8.64565 10.8084 8.97823 11.2694 8.97907C11.7314 8.97823 12.2499 8.64565 12.5761 8.08865C12.6124 8.02661 12.6486 7.96632 12.6865 7.91019C12.6924 7.90182 12.6984 7.89427 12.7034 7.8859C12.7354 7.83815 12.7692 7.79123 12.8046 7.74598C12.8121 7.73594 12.8189 7.72757 12.8256 7.71919C12.8619 7.67477 12.8989 7.63123 12.9369 7.59098C12.9436 7.58432 12.9487 7.57844 12.9546 7.57344C13.1198 7.40507 13.3171 7.27686 13.575 7.20569L13.4604 7.13952H13.4537L12.9967 6.87565L12.5272 6.6084L11.2728 7.28694L11.2694 7.2844L11.2669 7.28694L10.0117 6.6084L9.54303 6.87477L9.08528 7.13865H9.0802L8.96387 7.20486C9.22266 7.27602 9.41908 7.40252 9.58516 7.5709C9.5927 7.57761 9.59778 7.58515 9.60541 7.59186ZM10.7619 7.5374H11.293H11.8233V7.89927C11.6986 7.74769 11.4558 7.77869 11.4558 7.77869V8.30057C11.4558 8.30057 11.465 8.5569 11.5552 8.66827H11.293H11.03C11.1219 8.55773 11.1304 8.30057 11.1304 8.30057V7.77869C11.1304 7.77869 10.8884 7.74769 10.7619 7.89927V7.5374Z" fill="white"/>
<path d="M11.1614 6.83522V4.71671L9.8042 4.25928L10.1624 6.31251L11.1614 6.83522ZM10.8697 5.23692V5.57701L10.804 5.54684C10.8006 5.54434 10.7045 5.52255 10.5359 5.39017C10.2577 5.17576 10.2527 4.97805 10.2527 4.97805L10.8697 5.23692Z" fill="white"/>
<path d="M12.3787 6.31251L12.7353 4.25928L11.3789 4.71671V6.83522L12.3787 6.31251ZM11.6706 5.23692L12.2876 4.97888C12.2876 4.97888 12.2826 5.17659 12.0036 5.39101C11.8358 5.52338 11.7389 5.54513 11.7355 5.54767L11.6697 5.5778V5.23692H11.6706Z" fill="white"/>
<path d="M9.24187 11.747C9.37425 11.7947 9.53442 11.8047 9.61617 11.8047C9.61958 11.7947 9.62375 11.7821 9.628 11.767C9.63554 11.7427 9.64233 11.7193 9.64742 11.6925C9.67017 11.5752 9.67858 11.442 9.68025 11.3566C9.62458 11.3222 9.54621 11.261 9.50242 11.1698C9.45183 11.0642 9.38017 11.0156 9.27475 11.0156C9.13821 11.0156 8.99154 11.0969 8.92912 11.1355C8.87946 11.4278 9.09604 11.6933 9.24187 11.747Z" fill="white"/>
<path d="M12.2438 10.6226C11.9918 10.8948 11.4986 11.369 11.4742 11.3933L11.4447 11.4234L9.886 11.3991C9.88513 11.5524 9.85984 11.6831 9.83542 11.7786C9.83121 11.7945 9.827 11.8113 9.82275 11.828L11.6773 12.1589C11.8704 12.0249 12.4015 11.6395 12.6072 11.4888C12.4571 11.271 12.4428 11.0129 12.4765 10.8312C12.3787 10.7684 12.3037 10.698 12.2438 10.6226Z" fill="white"/>
<path d="M12.4553 8.75987C12.0962 9.1142 11.7514 9.24487 11.4438 9.27503C11.3881 9.28091 11.3316 9.2842 11.2743 9.2842H11.27H11.2667C11.2094 9.2842 11.152 9.28091 11.0964 9.27503C11.0425 9.26999 10.986 9.26162 10.9295 9.24907C10.9093 9.32862 10.884 9.49532 10.9565 9.65282C11.0214 9.79607 11.1538 9.90245 11.3468 9.97287L11.4117 9.99795L11.4125 10.0675C11.4125 10.0884 11.4277 10.5391 11.9225 10.6639C12.0035 10.581 12.0768 10.5064 12.1308 10.4444C12.0296 10.2082 12.0827 9.96695 12.2294 9.84882C12.2227 9.87395 12.1586 10.4654 12.6358 10.6848L12.7141 10.7217L12.6905 10.8047C12.6829 10.8298 12.5236 11.4019 13.101 11.6147L13.203 11.6532L13.1575 11.7521C13.1474 11.7739 12.9207 12.2933 13.4543 12.5881H14.6117V11.675C14.2003 11.6247 14.0258 11.2964 13.9811 11.0635C13.7898 11.0308 13.6414 10.9487 13.5402 10.8147C13.2974 10.4972 13.5065 10.2065 13.509 10.1906C13.5082 10.1932 13.509 10.5031 13.7013 10.6941C13.7965 10.7862 13.9095 10.8574 14.0806 10.8734L14.1649 10.8809L14.1725 10.9664C14.1741 10.9847 14.2205 11.4036 14.6125 11.4698L14.6117 9.60507C14.6117 9.31607 14.6968 9.02541 14.7988 8.75732H12.4553V8.75987Z" fill="white"/>
<path d="M9.34074 9.61398L9.30957 10.8019L9.44524 10.822L9.7774 9.68269L9.60882 9.33252L9.34074 9.61398Z" fill="white"/>
<path d="M13.0025 15.0617C13.0126 15.0617 13.0244 15.0635 13.0354 15.066C13.2419 15.1246 13.2942 15.8651 13.6567 15.9313C13.6921 15.9388 13.725 15.9405 13.7536 15.9405C13.8582 15.9405 13.9205 15.8961 13.988 15.8174C13.988 15.8174 13.8059 15.5325 13.6693 15.3407C13.4881 15.0894 13.3473 14.7853 13.0101 14.7853C13.0025 14.7853 12.9924 14.7853 12.984 14.7862C12.8727 14.792 12.8044 14.8456 12.8044 14.8456C12.6678 14.7602 12.5406 14.7309 12.425 14.7309C12.2135 14.7309 12.0491 14.8272 11.9673 14.8272H11.964L11.2103 14.7535C11.0923 14.7426 10.9996 14.6245 10.9659 14.5785C10.9574 14.5658 10.9532 14.5583 10.9532 14.5583C10.9532 14.5382 10.9532 14.5173 10.9515 14.4988C10.9262 13.8865 10.4491 13.6243 10.2797 13.6201C10.2797 13.6201 10.2999 13.5037 10.2535 13.4593L10.0875 13.6595L9.54204 13.3872L9.93067 13.8387L9.60104 14.2065C9.55971 14.2484 9.56479 14.3054 9.58167 14.3288L9.72412 14.4536L9.90454 14.3447C9.91379 14.338 9.92983 14.3363 9.95004 14.3363C9.99979 14.3363 10.0748 14.3489 10.1422 14.3489C10.2156 14.3489 10.2797 14.333 10.2872 14.2642C10.2645 14.4913 10.0529 14.8858 10.192 15.1958L10.2949 15.4295L9.62887 15.334L9.31696 15.8576C9.22087 16.0318 9.20571 16.2203 9.29842 16.3225L9.41471 16.4675C9.41471 16.4675 9.57829 16.2948 9.61537 16.1817L9.56225 16.124C9.51758 16.0754 9.52012 16.0318 9.54712 15.9791L9.74267 15.6565L10.5292 15.8408L10.5705 15.7705C10.6236 15.6825 10.7003 15.6557 10.7846 15.6557C10.8192 15.6557 10.8546 15.6599 10.8917 15.6657C11.0375 15.6942 11.2778 15.7327 11.518 15.7327C11.7819 15.7327 12.0432 15.6859 12.1822 15.5309C12.4672 15.9506 13.0447 16.0176 12.9991 16.2303L12.8474 16.9491C12.9477 16.9449 13.0447 16.9382 13.1365 16.9256L13.2807 16.1775C13.2967 16.0963 13.3119 15.9865 13.3119 15.9865C13.2562 15.9305 13.1214 15.8115 13.0455 15.6674C12.9435 15.473 12.9991 15.3717 12.9039 15.1187C12.9072 15.1204 12.9359 15.0617 13.0025 15.0617ZM10.0605 14.0113C10.0217 14.0105 9.99387 13.9778 9.99554 13.9393C9.99896 13.9024 10.0301 13.8731 10.068 13.8764C10.1068 13.8781 10.1347 13.9116 10.133 13.9485C10.1296 13.9853 10.0976 14.0138 10.0605 14.0113Z" fill="white"/>
<path d="M8.98652 15.7418C8.98652 15.7418 9.24697 15.6355 9.27056 15.5592L9.23602 15.4729C9.21156 15.4168 9.21493 15.3556 9.26214 15.3222L9.54368 15.1286L10.0141 15.2183C10.0141 15.2183 9.92893 15.1127 9.93739 14.9711L9.48893 14.8765L9.06572 15.1328C8.88447 15.2677 8.87097 15.488 8.93085 15.6186L8.98652 15.7418Z" fill="white"/>
<path d="M12.311 16.9597C12.3953 16.9563 12.488 16.9547 12.5901 16.9547C12.5901 16.9547 12.832 16.2518 12.8455 16.2292C12.7098 16.1697 12.4282 16.0214 12.3195 15.9536C12.3911 16.06 12.5656 16.1823 12.5311 16.2761L12.311 16.9597Z" fill="white"/>
<path d="M14.6142 12.7915H7.92676V15.2912C7.92676 16.3132 8.67117 16.9532 9.76955 16.9532C10.6876 16.9532 10.9295 16.9883 11.2709 17.3251C11.5061 17.0923 11.7009 17.0051 12.1004 16.9724L12.1097 16.9339L12.3204 16.2864C12.3086 16.2721 11.9639 15.8826 11.9639 15.8826C11.8273 15.9279 11.7127 15.9354 11.5196 15.9354C11.3215 15.9354 11.0981 15.9128 10.8562 15.8675C10.8317 15.8617 10.809 15.86 10.7862 15.86C10.7567 15.86 10.7542 15.8625 10.7466 15.8768L10.7044 15.9454L10.6277 16.0711L10.4836 16.0384L9.84205 15.8885L9.75434 16.0326L9.76784 16.0476L9.84626 16.1331L9.81172 16.2445C9.76447 16.3903 9.61105 16.5603 9.56472 16.6073L9.40451 16.7781L9.25872 16.5947L9.14913 16.4581C9.03359 16.33 9.00667 16.1331 9.07155 15.927C9.06984 15.9287 9.0673 15.9295 9.06484 15.9295L8.88359 16.0041L8.80176 15.8281L8.74447 15.7034C8.64588 15.4839 8.68205 15.163 8.94767 14.9695L9.46442 14.6797L9.95588 14.776C9.96767 14.7291 9.98534 14.5615 9.99967 14.5189C9.99042 14.518 9.98117 14.5155 9.97184 14.5155L9.68863 14.6202L9.41547 14.4326C9.41547 14.4326 9.30842 14.3303 9.40534 14.2282L9.67005 13.8303L8.99988 12.9942L10.03 13.4148L10.0983 13.3302L10.2374 13.1651L10.395 13.3143C10.4397 13.357 10.465 13.4097 10.4776 13.4625C10.7617 13.5723 11.27 13.8965 11.3147 14.4233L11.1554 14.487V14.4912C11.1917 14.5339 11.222 14.5515 11.2313 14.5532L11.9664 14.6253C11.9849 14.6219 12.0085 14.6135 12.0347 14.606C12.1257 14.575 12.2631 14.5306 12.4258 14.5306C12.5582 14.5306 12.6863 14.5607 12.8093 14.6177C12.8549 14.601 12.9105 14.5884 12.9746 14.5842L13.01 14.5834C13.4037 14.5834 13.5992 14.8757 13.7561 15.1086C13.7822 15.1488 13.8083 15.1873 13.8353 15.225C13.9727 15.4177 14.1522 15.7 14.1598 15.7118L14.2408 15.8374L14.1413 15.9522C14.0646 16.0401 13.9499 16.1432 13.7527 16.1432C13.7122 16.1432 13.6675 16.139 13.6195 16.1297C13.5774 16.1222 13.5394 16.1096 13.5023 16.0945C13.4964 16.1331 13.4888 16.1792 13.4812 16.2185L13.3523 16.887C14.1236 16.6985 14.6134 16.1197 14.6134 15.292L14.6142 12.7915Z" fill="#FFDD2D"/>
<path d="M7.92663 12.5908H13.127C12.8674 12.3244 12.8708 11.9868 12.9374 11.7673C12.8615 11.7313 12.7991 11.6877 12.7435 11.6408C12.5403 11.7899 11.9199 12.2389 11.758 12.3511L11.7235 12.3746L9.68259 12.0077H9.64129C9.59242 12.0077 9.52075 12.006 9.44234 11.9968C9.42042 12.0881 9.34121 12.151 9.25013 12.151C9.24 12.151 9.22821 12.1501 9.21725 12.1476C9.16413 12.1384 9.11784 12.1116 9.08663 12.0672C9.05459 12.0236 9.04196 11.9717 9.05121 11.9181L9.05879 11.8745C8.84804 11.7271 8.65417 11.3978 8.74013 11.0511L8.74854 11.0142L8.77809 10.9933C8.78229 10.9899 8.81767 10.9665 8.86996 10.9363L8.72159 10.9137C8.66596 10.9036 8.62888 10.8525 8.63734 10.7981C8.64659 10.7428 8.69884 10.7034 8.75363 10.7143L9.10684 10.7696L9.13888 9.53313L9.66492 8.98026L9.99284 9.66638L9.64634 10.8559L9.95829 10.9045C10.013 10.9128 10.051 10.9639 10.0426 11.0201C10.0341 11.0695 9.992 11.1038 9.94225 11.1038C9.93717 11.1038 9.93129 11.1038 9.92621 11.103L9.67246 11.062C9.67588 11.0695 9.68088 11.0736 9.68429 11.082C9.71125 11.1373 9.77113 11.1776 9.8065 11.1943L11.3627 11.2186C11.4284 11.1549 11.592 10.9958 11.7598 10.8274C11.377 10.6833 11.2379 10.3549 11.2143 10.1371C11.0002 10.0466 10.8527 9.91097 10.7709 9.73418C10.6714 9.51559 10.7068 9.29693 10.733 9.19055C10.5256 9.11513 10.3073 8.9778 10.0847 8.7583H7.74121C7.84154 9.0263 7.92663 9.31705 7.92663 9.60605V12.5908Z" fill="#FFDD2D"/>
<path d="M10.0688 13.8762C10.0308 13.8729 9.99879 13.9022 9.99625 13.939C9.99371 13.9775 10.0224 14.0102 10.0612 14.011C10.0982 14.0144 10.1311 13.9859 10.1345 13.9482C10.1345 13.9114 10.1075 13.8771 10.0688 13.8762Z" fill="black"/>
<path d="M14.6048 18.409L14.2196 18.2623L14.3258 17.867L14.443 17.4355C14.443 17.4355 13.7601 17.8033 12.7983 18.0798C12.5252 18.1577 12.3186 18.1928 12.3186 18.1928V18.486C12.3186 18.486 11.8044 18.5748 11.2843 18.5748H11.2783H11.2708H11.2607H11.2548C10.7347 18.5748 10.2204 18.486 10.2204 18.486V18.1928C10.2204 18.1928 10.013 18.1577 9.74075 18.0798C8.77888 17.8033 8.09692 17.4355 8.09692 17.4355L8.21238 17.867L8.32113 18.2623L7.93504 18.409L7.50684 18.5681C7.99829 18.8035 8.67854 19.147 9.30159 19.3162L9.15488 19.7149C9.15488 19.7149 9.94475 20.0726 11.2607 20.076V20.0768H11.2649H11.2708H11.2759H11.2792V20.076C12.5968 20.0726 13.3858 19.7149 13.3858 19.7149L13.2383 19.3162C13.8613 19.147 14.5433 18.8035 15.0322 18.5681L14.6048 18.409ZM7.96371 18.5949L8.59763 18.3855L8.4105 17.7782C8.6895 17.9357 9.31592 18.1719 9.67834 18.2816L9.37238 19.1168C8.81259 18.9635 8.34642 18.7851 7.96371 18.5949ZM11.2708 19.8665C10.5348 19.8665 9.69438 19.6982 9.44742 19.6111L9.82334 18.6C10.1353 18.6905 10.7844 18.7868 11.2556 18.7834H11.2565H11.2708H11.2834H11.2851C11.7564 18.7868 12.4038 18.6905 12.7174 18.6L13.0925 19.6111C12.8455 19.699 12.0059 19.8665 11.2708 19.8665ZM13.1675 19.1168L12.8624 18.2816C13.2257 18.1719 13.8503 17.9357 14.1302 17.7782L13.9439 18.3855L14.577 18.5949C14.1934 18.7851 13.7298 18.9635 13.1675 19.1168Z" fill="black"/>
<path d="M11.2699 2.62685C12.0539 2.62685 12.681 2.8849 13.0275 3.16051C13.0275 3.16051 13.1304 2.54477 13.4819 2.00113L12.8505 2.07231L12.5201 1.37453L11.8853 1.69957L11.2699 1.09473L10.6562 1.69957L10.0206 1.37453L9.69099 2.07231L9.05957 2.00113C9.41107 2.54477 9.51395 3.16051 9.51395 3.16051C9.86124 2.8849 10.4867 2.62685 11.2699 2.62685ZM9.66228 2.31691L9.83765 2.33537L9.91353 2.17704L10.1344 1.70794L10.5441 1.91816L10.7026 1.9986L10.829 1.87464L11.2707 1.43904L11.7133 1.87464L11.8398 1.9986L11.9982 1.91816L12.4054 1.70794L12.6288 2.17704L12.703 2.33537L12.8783 2.31691L13.0452 2.29681C12.9685 2.46858 12.912 2.63104 12.8715 2.76596C12.4298 2.52136 11.8549 2.38225 11.2691 2.38225C10.6857 2.38225 10.1116 2.52136 9.6682 2.76596C9.62695 2.63104 9.57128 2.46769 9.49453 2.29681L9.66228 2.31691Z" fill="black"/>
<path d="M20.4678 10.7969C21.482 10.7969 21.8208 9.77163 21.8352 9.72804L21.9481 9.36696L21.5679 9.37871H21.5663C21.4322 9.37871 20.3136 9.34938 19.5203 8.3475L19.4453 8.25454C18.9269 7.59946 18.4354 6.97704 17.557 6.69304C17.5823 6.67046 17.6185 6.64196 17.6683 6.61013C18.1344 6.30521 18.4059 5.93492 18.4741 5.50521C18.5736 4.8585 18.1589 4.34331 18.1404 4.32237L17.8579 3.97558L17.6818 4.38689C17.67 4.41284 17.3732 5.07129 16.7494 5.07129H16.703C16.6601 5.06875 16.6196 5.06708 16.5791 5.06371C16.6011 4.76971 16.5471 4.31483 16.1324 3.88843C15.6341 3.37493 15.0221 3.29785 14.7018 3.29785C14.5306 3.29785 14.4169 3.31879 14.405 3.3205L13.9785 3.40423L14.2415 3.74855C14.4481 4.01409 14.6352 4.50417 14.4134 4.7605C14.3426 4.84175 14.1969 4.90792 14.0569 4.97408C13.7694 5.10558 13.3774 5.28821 13.3774 5.754C13.3774 6.05559 13.6126 6.37054 14.0392 6.63859C15.302 7.42771 16.0809 8.25117 16.4173 9.16004C16.9374 10.5582 16.2588 11.3557 15.5996 11.7754L15.3036 11.9647L15.5625 12.2009C15.597 12.2311 15.914 12.5083 16.3819 12.5486C16.4704 12.5544 16.5555 12.5594 16.6348 12.5594C16.9349 12.5594 17.1903 12.5125 17.3976 12.4497C17.3403 12.5494 17.2704 12.6508 17.1819 12.753C16.8051 13.1868 16.3414 13.3846 15.6746 13.3946L15.4267 13.3988L15.4074 13.6459C15.4048 13.6953 15.3863 14.1536 15.8229 14.5431C15.8896 14.6034 15.9705 14.6529 16.0548 14.6939C15.7589 14.9586 15.4579 15.4193 15.3998 16.2093C15.3509 16.8685 15.1924 17.1123 15.1907 17.1148L14.9168 17.5303L15.4116 17.537C16.2293 17.537 16.8556 17.3125 17.2897 16.8685C17.546 16.6055 17.6927 16.309 17.7796 16.046C17.922 16.1665 18.1058 16.2721 18.3451 16.3282C18.4362 16.3492 18.5357 16.3609 18.6428 16.3609C18.8738 16.3609 19.0668 16.3123 19.0887 16.3073L19.4048 16.2235L19.2649 15.9303C19.2548 15.9069 18.9909 15.3188 19.275 14.4794C19.3972 14.1167 19.4596 13.7917 19.4899 13.5387C19.6889 13.6417 19.9553 13.7272 20.3001 13.728C21.0824 13.728 21.4271 13.1475 21.4432 13.1232L21.5974 12.8568L21.3117 12.7395C20.3793 12.355 20.1728 11.3221 20.1315 10.7626C20.2158 10.7785 20.3119 10.7936 20.4206 10.7969H20.4678ZM21.2071 12.9866C21.2071 12.9866 20.934 13.4583 20.3076 13.4583H20.3001C19.5481 13.4541 19.2446 12.9984 19.2446 12.9984C19.2446 12.9984 19.2885 13.5915 19.0171 14.3915C18.6908 15.3557 19.0196 16.0451 19.0196 16.0451C19.0196 16.0451 18.8442 16.092 18.6419 16.092C18.5644 16.092 18.4834 16.0845 18.4076 16.0643C17.7796 15.9161 17.6228 15.3481 17.6228 15.3481C17.6228 15.3481 17.6809 17.2673 15.4293 17.2673H15.4116C15.4116 17.2673 15.6097 16.9992 15.6687 16.2277C15.7757 14.8036 16.7461 14.6085 16.7461 14.6085C16.7461 14.6085 16.2284 14.544 16.0042 14.3438C15.6535 14.0279 15.6779 13.6627 15.6779 13.6627C16.4704 13.6518 16.9888 13.3838 17.3841 12.9289C17.8124 12.4363 17.8832 11.906 17.8832 11.906C17.8832 11.906 17.4575 12.2897 16.6339 12.2897C16.5614 12.2897 16.4839 12.2863 16.4046 12.2788C16.0152 12.2478 15.7454 12.0015 15.7454 12.0015C16.6027 11.4553 17.2046 10.502 16.671 9.06621C16.2436 7.91609 15.2169 7.05663 14.1834 6.40908C13.8394 6.19546 13.648 5.95842 13.648 5.754C13.648 5.27317 14.3359 5.25808 14.6184 4.93471C14.9437 4.55943 14.7397 3.95046 14.4573 3.58438C14.4573 3.58438 14.5526 3.5651 14.7026 3.5651C15.0002 3.5651 15.5153 3.63964 15.9384 4.07524C16.5007 4.65325 16.2672 5.28238 16.2672 5.28238L16.4181 5.31171C16.5083 5.33096 16.5977 5.33434 16.6904 5.3385C16.7106 5.3385 16.7309 5.33933 16.7511 5.33933C17.5679 5.33933 17.933 4.49073 17.933 4.49073C17.933 4.49073 18.8013 5.55213 17.5233 6.38309C17.3032 6.5255 17.2063 6.657 17.2316 6.79775L17.2519 6.88992L17.3429 6.90584C18.2693 7.15546 18.738 7.79046 19.3104 8.5125C20.1795 9.61075 21.4095 9.64596 21.5612 9.64596H21.5772C21.5772 9.64596 21.2965 10.5263 20.4695 10.5263C20.456 10.5263 20.4442 10.5263 20.4299 10.5255C20.0497 10.5121 19.855 10.3672 19.855 10.3672C19.855 10.3672 19.7058 12.3668 21.2071 12.9866Z" fill="black"/>
<path d="M18.6869 6.80392C19.0653 7.00409 19.2854 7.27217 19.4784 7.51005C19.6681 7.74209 19.8485 7.96576 20.13 8.05876C20.2303 8.09313 20.3365 8.10905 20.4444 8.10905C20.8676 8.10905 21.2925 7.85184 21.4535 7.49584L21.6154 7.13897L21.2234 7.11551C21.2048 7.11467 20.7007 7.06942 20.1393 6.49896C19.9083 6.2653 19.6293 6.14209 19.3283 6.14209C18.9608 6.14209 18.6885 6.32472 18.6582 6.34317L18.2974 6.59534L18.6869 6.80392ZM19.3292 6.41188C19.518 6.41188 19.738 6.47551 19.9463 6.68913C20.5995 7.34842 21.2074 7.38526 21.2074 7.38526C21.0969 7.62817 20.7766 7.8418 20.4453 7.8418C20.3686 7.8418 20.2919 7.83009 20.2152 7.80413C19.7659 7.65334 19.6048 6.98317 18.8149 6.56597C18.8149 6.56597 19.0359 6.41188 19.3292 6.41188Z" fill="black"/>
<path d="M18.8634 10.3631V10.3766C18.6358 8.55207 17.3022 7.23436 15.8186 6.4327C15.6812 6.35978 15.5547 6.29782 15.4316 6.23832C15.8835 6.30786 16.611 6.31624 17.1724 5.83203C17.1724 5.83203 16.3134 6.46032 14.5532 5.88986C15.0405 6.20399 15.9872 6.64716 16.8512 7.36503C19.0118 9.25149 17.4658 11.0919 17.4658 11.0919C18.2422 10.2869 18.2742 9.42411 18.0458 8.71961C18.4546 9.39561 18.7159 10.2165 18.6754 11.2285C18.6156 12.6785 17.8139 13.9326 16.9701 14.9403C16.5646 15.4295 16.4736 16.0302 16.4736 16.0302C16.4736 16.0302 16.6371 15.4999 17.1066 14.9545C18.0112 13.9024 18.7842 12.8092 18.8853 11.2343C18.9789 11.52 19.3642 12.315 19.9753 12.614C19.977 12.6149 19.2091 12.155 18.8634 10.3631Z" fill="black"/>
<path d="M7.34925 17.1138C7.34841 17.1113 7.19162 16.8675 7.14108 16.2082C7.08208 15.4183 6.78191 14.9576 6.48521 14.6929C6.57121 14.6527 6.65041 14.6032 6.71704 14.5421C7.15287 14.1525 7.13429 13.6944 7.13175 13.6449L7.11491 13.3978L6.86537 13.3936C6.20029 13.3827 5.73575 13.185 5.35895 12.7519C5.27129 12.6497 5.2005 12.5484 5.14316 12.4487C5.3505 12.5115 5.60425 12.5584 5.90521 12.5584C5.98616 12.5584 6.06962 12.5534 6.15812 12.5475C6.62596 12.5073 6.94296 12.2309 6.97833 12.1999L7.23712 11.9637L6.94125 11.7743C6.2795 11.3538 5.60341 10.5563 6.1227 9.15907C6.45904 8.25015 7.23712 7.42669 8.50162 6.63757C8.9282 6.36948 9.16166 6.05457 9.16166 5.75298C9.16166 5.28723 8.77054 5.10378 8.48308 4.97307C8.34312 4.9069 8.19733 4.84073 8.12654 4.75948C7.90395 4.50397 8.09191 4.01311 8.29762 3.74752L8.56233 3.40325L8.13408 3.31946C8.12145 3.31781 8.00933 3.29688 7.83737 3.29688C7.517 3.29688 6.9067 3.37395 6.40762 3.88745C5.99204 4.31467 5.93729 4.76953 5.95833 5.06269C5.91787 5.06607 5.87741 5.06778 5.83525 5.07023H5.78975C5.16425 5.07023 4.86837 4.41185 4.85658 4.38585L4.68033 3.97455L4.39541 4.32134C4.37941 4.34233 3.96299 4.85832 4.06414 5.50419C4.13157 5.9339 4.403 6.30415 4.86916 6.60911C4.91975 6.64094 4.95516 6.6694 4.98045 6.69207C4.10293 6.97598 3.61229 7.59927 3.09383 8.25432L3.0188 8.34732C2.22643 9.34919 1.10522 9.37857 0.971189 9.37857L0.589355 9.36682L0.705651 9.72782C0.719147 9.7714 1.05718 10.7967 2.07212 10.7967L2.12104 10.7951C2.22808 10.7917 2.32421 10.7775 2.41021 10.7607C2.36801 11.3194 2.16148 12.3524 1.22829 12.7377L0.943364 12.855L1.09768 13.1214C1.11283 13.1456 1.45846 13.7262 2.2424 13.7262C2.58468 13.7253 2.85104 13.6399 3.05086 13.5369C3.08121 13.7898 3.14358 14.1149 3.26582 14.4776C3.54993 15.3169 3.28521 15.905 3.27508 15.9285L3.13515 16.2217L3.45214 16.3054C3.47318 16.3104 3.66793 16.359 3.89804 16.359C4.00596 16.359 4.10546 16.3473 4.19483 16.3264C4.43508 16.2702 4.6205 16.1647 4.76125 16.0441C4.84725 16.3071 4.99479 16.6037 5.25025 16.8667C5.68516 17.3106 6.31066 17.5351 7.12837 17.5351L7.62408 17.5285L7.34925 17.1138ZM7.10983 17.2671C4.8582 17.2671 4.91558 15.3479 4.91558 15.3479C4.91558 15.3479 4.75879 15.9159 4.13074 16.0642C4.05571 16.0843 3.97561 16.0919 3.89721 16.0919C3.69492 16.0919 3.5204 16.0449 3.5204 16.0449C3.5204 16.0449 3.84747 15.3555 3.52122 14.3913C3.2515 13.5913 3.29535 12.9982 3.29535 12.9982C3.29535 12.9982 2.99268 13.4539 2.23993 13.4581H2.23232C1.606 13.4581 1.33286 12.9865 1.33286 12.9865C2.83336 12.3674 2.68583 10.3687 2.68583 10.3687C2.68583 10.3687 2.49114 10.5128 2.11008 10.527C2.09658 10.5279 2.08396 10.5279 2.07046 10.5279C1.24262 10.5279 0.96276 9.64744 0.96276 9.64744H0.979614C1.13222 9.64744 2.36046 9.61223 3.22957 8.51402C3.80196 7.79194 4.2715 7.15777 5.19625 6.90736L5.28896 6.89144L5.30925 6.79928C5.33454 6.65853 5.23841 6.52702 5.01841 6.38461C3.74043 5.55277 4.60871 4.49223 4.60871 4.49223C4.60871 4.49223 4.97204 5.34002 5.79058 5.34002C5.81079 5.34002 5.82937 5.33915 5.85041 5.33915C5.94229 5.33411 6.03337 5.33078 6.1227 5.31153L6.27362 5.28219C6.27362 5.28219 6.04008 4.6531 6.60321 4.07509C7.02641 3.63866 7.54146 3.56495 7.83816 3.56495C7.98908 3.56495 8.08266 3.58417 8.08266 3.58417C7.80112 3.95108 7.59712 4.55928 7.92245 4.93457C8.20404 5.25707 8.89108 5.27298 8.89108 5.75382C8.89108 5.95736 8.69975 6.19532 8.35583 6.4089C7.32141 7.05644 6.2947 7.9159 5.86812 9.06607C5.33537 10.5019 5.93641 11.4543 6.79541 12.0014C6.79541 12.0014 6.52566 12.2476 6.13537 12.2787C6.05612 12.2862 5.97941 12.2895 5.90521 12.2895C5.08246 12.2895 4.65675 11.9058 4.65675 11.9058C4.65675 11.9058 4.72754 12.4361 5.15329 12.9287C5.55116 13.3835 6.06962 13.6516 6.86204 13.6625C6.86204 13.6625 6.88733 14.0278 6.53662 14.3435C6.31158 14.5429 5.79391 14.6082 5.79391 14.6082C5.79391 14.6082 6.76508 14.8034 6.87129 16.2275C6.92946 16.999 7.12587 17.2671 7.12587 17.2671H7.10983Z" fill="black"/>
<path d="M2.09502 8.10964C2.20377 8.10964 2.30999 8.09368 2.41025 8.0593C2.69353 7.96635 2.87307 7.74268 3.06274 7.51064C3.25666 7.27272 3.47499 7.00468 3.85346 6.80447L4.24296 6.59672L3.88128 6.34455C3.85093 6.3253 3.57949 6.14355 3.21281 6.14355C2.91103 6.14355 2.63116 6.26585 2.401 6.50035C1.83957 7.07001 1.33631 7.11605 1.31775 7.11693L0.925781 7.13951L1.08681 7.49722C1.24861 7.85155 1.67264 8.10964 2.09502 8.10964ZM2.59404 6.68972C2.8031 6.47605 3.02314 6.41243 3.21281 6.41243C3.50446 6.41243 3.72532 6.56651 3.72532 6.56651C2.93631 6.98455 2.77446 7.65393 2.32343 7.80468C2.24928 7.83064 2.17171 7.84239 2.09502 7.84239C1.76371 7.84239 1.44336 7.6296 1.33378 7.38585C1.33378 7.38501 1.94071 7.3481 2.59404 6.68972Z" fill="black"/>
<path d="M3.86422 11.2295C3.82208 10.2175 4.08343 9.39655 4.49309 8.72055C4.26463 9.42505 4.29584 10.2879 5.07309 11.0929C5.07309 11.0929 3.52701 9.25251 5.68842 7.36601C6.55338 6.64809 7.49921 6.20492 7.98563 5.8908C6.2263 6.46126 5.36726 5.83301 5.36726 5.83301C5.92867 6.31722 6.65621 6.30884 7.10809 6.23851C6.98584 6.29792 6.85767 6.35992 6.72192 6.4328C5.23663 7.23447 3.90383 8.55217 3.67537 10.3767V10.3625C3.33062 12.1543 2.56348 12.6142 2.56348 12.6142C3.17383 12.3151 3.55825 11.521 3.65179 11.2345C3.75382 12.8094 4.5268 13.9025 5.43134 14.9547C5.90088 15.5 6.06613 16.0303 6.06613 16.0303C6.06613 16.0303 5.97426 15.4296 5.56709 14.9404C4.72492 13.9344 3.92323 12.6795 3.86422 11.2295Z" fill="black"/>
<path d="M10.7617 7.5376V7.89947C10.8873 7.74785 11.1301 7.77889 11.1301 7.77889V8.30076C11.1301 8.30076 11.1217 8.5571 11.0298 8.66847H11.2928H11.555C11.4648 8.55793 11.4555 8.30076 11.4555 8.30076V7.77889C11.4555 7.77889 11.6983 7.74785 11.8231 7.89947V7.5376H11.2928H10.7617Z" fill="black"/>
<path d="M10.5356 5.39113C10.7034 5.52355 10.8004 5.5453 10.8037 5.54784L10.8695 5.57796V5.237L10.2524 4.979C10.2524 4.97984 10.2583 5.17667 10.5356 5.39113Z" fill="black"/>
<path d="M12.0034 5.39113C12.2824 5.17667 12.2875 4.979 12.2875 4.979L11.6704 5.237V5.57796L11.7353 5.54784C11.7395 5.5453 11.8356 5.52355 12.0034 5.39113Z" fill="black"/>
<path d="M13.1152 4.00326C13.1152 3.4864 12.2393 3.02148 11.2724 3.02148H11.2716H11.2691H11.2665C10.2996 3.02148 9.42373 3.4864 9.42373 4.00326L9.44315 4.13057L9.82919 6.33288L9.44148 6.55654L8.43827 7.13875H8.44169C8.44169 7.13875 8.21577 7.2535 8.11119 7.32471C7.72936 7.58863 7.64844 7.97308 7.87011 8.13225C7.92494 7.81896 8.17444 7.49058 8.64144 7.49058C8.97781 7.49058 9.23406 7.66313 9.44148 7.922C9.49456 7.98734 9.54515 8.05688 9.59236 8.13225C9.65048 8.22688 9.70865 8.30988 9.76686 8.39029H7.18311C7.37277 8.76975 7.55315 9.17188 7.55315 9.60829V15.2912C7.55315 16.6667 8.61786 17.3235 9.76936 17.3235C10.6596 17.3235 10.7793 17.2833 11.2708 17.7691C11.7597 17.2824 11.8794 17.3235 12.7704 17.3235C13.9228 17.3235 14.9858 16.6667 14.9858 15.2912V9.60829C14.9858 9.17188 15.1662 8.76975 15.3567 8.39029H12.7721C12.8294 8.31067 12.8876 8.22688 12.9457 8.13225C12.9938 8.05688 13.0435 7.98734 13.0958 7.922C13.3049 7.66233 13.5603 7.49058 13.8966 7.49058C14.3636 7.49058 14.6124 7.81813 14.668 8.13225C14.8897 7.97308 14.8096 7.58863 14.4252 7.32471C14.3224 7.2535 14.0964 7.13875 14.0964 7.13875H14.0998L13.0966 6.55654L12.7106 6.33288L13.0966 4.13057L13.1152 4.00326ZM9.8039 4.25959L11.1611 4.71696V6.8355L10.1622 6.31196L9.8039 4.25959ZM10.0846 8.75967C10.3072 8.97996 10.5256 9.11654 10.7329 9.19192C10.7059 9.29834 10.6706 9.51783 10.7709 9.73642C10.8526 9.91233 11.001 10.0481 11.2142 10.1385C11.2379 10.3564 11.3761 10.6839 11.7597 10.8288C11.5919 10.9972 11.4284 11.1555 11.3618 11.22L9.80644 11.1957C9.77106 11.1781 9.71119 11.1388 9.68427 11.0826C9.68086 11.0751 9.67581 11.0709 9.67331 11.0625L9.92698 11.1035C9.93294 11.1044 9.93794 11.1044 9.94302 11.1044C9.99194 11.1044 10.0349 11.0709 10.0434 11.0206C10.0518 10.9645 10.0139 10.9134 9.95906 10.905L9.64715 10.8564L9.99361 9.66771L9.66569 8.98167L9.13969 9.53458L9.1076 10.771L8.75444 10.7157C8.6996 10.7048 8.64736 10.745 8.63811 10.7995C8.62965 10.854 8.66673 10.905 8.72236 10.9151L8.87073 10.9377C8.81765 10.9679 8.7831 10.9913 8.77885 10.9946L8.74848 11.0156L8.74006 11.0525C8.6541 11.3993 8.84881 11.7285 9.05877 11.8759L9.05115 11.9195C9.04273 11.9731 9.05452 12.025 9.08656 12.0686C9.1169 12.113 9.1641 12.1398 9.21635 12.149C9.22735 12.1507 9.23911 12.1515 9.24927 12.1515C9.34027 12.1515 9.41956 12.0887 9.44231 11.9974C9.52069 12.0066 9.59236 12.0083 9.64123 12.0083H9.68256L11.7234 12.3743L11.758 12.3518C11.9206 12.2386 12.5403 11.7897 12.7434 11.6413C12.7991 11.6891 12.8614 11.7327 12.9373 11.7687C12.8716 11.9881 12.8674 12.3258 13.1279 12.5922H7.92661V9.60913C7.92661 9.32013 7.84148 9.02946 7.74115 8.76138H10.0846V8.75967ZM12.6069 11.4889C12.4004 11.6397 11.8693 12.025 11.6771 12.159L9.82248 11.8282C9.82673 11.8114 9.8309 11.7955 9.83515 11.7788C9.85956 11.6832 9.88402 11.5525 9.88573 11.3993L11.4444 11.4244L11.4739 11.3942C11.4975 11.3708 11.9915 10.8966 12.2436 10.6235C12.3034 10.6981 12.3784 10.7693 12.4762 10.8321C12.4425 11.0131 12.4568 11.2711 12.6069 11.4889ZM9.50215 11.1697C9.54598 11.261 9.62519 11.3222 9.68002 11.3565C9.67831 11.442 9.6699 11.5752 9.64715 11.6925C9.64206 11.7184 9.63535 11.7427 9.62773 11.767C9.62356 11.7821 9.61931 11.7947 9.61594 11.8047C9.53419 11.8047 9.37315 11.7947 9.24165 11.7469C9.09586 11.6933 8.87836 11.4278 8.9289 11.1354C8.99215 11.0968 9.13798 11.0156 9.27456 11.0156C9.37994 11.0148 9.45156 11.0642 9.50215 11.1697ZM9.30911 10.802L9.34027 9.61496L9.60836 9.33267L9.77698 9.68283L9.44481 10.8221L9.30911 10.802ZM12.59 16.9557C12.4889 16.9557 12.3953 16.9574 12.311 16.9608L12.5319 16.278C12.5664 16.1833 12.3919 16.0619 12.3202 15.9555C12.429 16.0234 12.7106 16.1716 12.8463 16.2311C12.832 16.2529 12.59 16.9557 12.59 16.9557ZM13.2829 16.18L13.1388 16.9273C13.0469 16.9398 12.9491 16.9465 12.8488 16.9507L13.0006 16.232C13.0461 16.0183 12.4686 15.9521 12.1837 15.5325C12.0446 15.6883 11.7824 15.7344 11.5194 15.7344C11.2792 15.7344 11.0389 15.6958 10.8931 15.6673C10.856 15.6615 10.8206 15.6573 10.786 15.6573C10.7017 15.6573 10.625 15.6833 10.5719 15.772L10.5297 15.8424L9.74327 15.6581L9.54769 15.9798C9.51986 16.0318 9.51815 16.0762 9.56286 16.1247L9.61594 16.1825C9.57969 16.2965 9.41619 16.4682 9.41619 16.4682L9.29902 16.3232C9.20623 16.2202 9.22144 16.0326 9.3184 15.8583L9.63027 15.3348L10.2963 15.4303L10.1926 15.1957C10.0535 14.8858 10.2651 14.4912 10.2878 14.2642C10.2802 14.3329 10.217 14.348 10.1428 14.348C10.0754 14.348 10.0004 14.3354 9.95061 14.3354C9.93123 14.3354 9.91435 14.337 9.9051 14.3438L9.72469 14.4527L9.58223 14.3278C9.56536 14.3035 9.55948 14.2474 9.6016 14.2055L9.93123 13.8386L9.54181 13.3871L10.0872 13.6594L10.2532 13.4592C10.2988 13.5036 10.2794 13.62 10.2794 13.62C10.4497 13.6242 10.9268 13.8864 10.9521 14.4979C10.9538 14.5163 10.9538 14.5373 10.9538 14.5573C10.9538 14.5573 10.958 14.5649 10.9664 14.5775C11.0001 14.6236 11.0929 14.7417 11.2109 14.7525L11.9645 14.8263H11.9679C12.0505 14.8263 12.2149 14.73 12.4256 14.73C12.5403 14.73 12.6684 14.7593 12.805 14.8447C12.805 14.8447 12.8732 14.7911 12.9845 14.7852C12.9929 14.7844 13.0023 14.7844 13.0107 14.7844C13.3487 14.7844 13.4886 15.0877 13.6699 15.3398C13.8065 15.5316 13.9886 15.8165 13.9886 15.8165C13.9211 15.896 13.8587 15.9396 13.7542 15.9396C13.7256 15.9396 13.6926 15.937 13.6572 15.9304C13.2947 15.8642 13.2425 15.1237 13.036 15.065C13.025 15.0617 13.0132 15.0608 13.0031 15.0608C12.9365 15.0608 12.907 15.1195 12.907 15.1195C13.0014 15.3716 12.9466 15.4738 13.0478 15.6682C13.1236 15.8123 13.2585 15.9312 13.3141 15.9873C13.3141 15.989 13.299 16.0979 13.2829 16.18ZM9.23577 15.473L9.27031 15.5593C9.24756 15.6347 8.98627 15.7419 8.98627 15.7419L8.92973 15.6195C8.8699 15.4889 8.88252 15.2686 9.06465 15.1337L9.48781 14.8774L9.93631 14.972C9.92786 15.1136 10.013 15.2192 10.013 15.2192L9.5426 15.1295L9.26106 15.323C9.21386 15.3557 9.21048 15.4169 9.23577 15.473ZM13.3538 16.8862L13.4828 16.2177C13.4895 16.1783 13.4979 16.1323 13.5038 16.0937C13.5401 16.1088 13.5789 16.1214 13.621 16.1289C13.669 16.1381 13.7137 16.1423 13.7542 16.1423C13.9515 16.1423 14.0661 16.0393 14.1428 15.9513L14.2423 15.8365L14.1614 15.7109C14.1538 15.6983 13.9751 15.4169 13.8368 15.2242C13.8098 15.1865 13.7836 15.1488 13.7576 15.1078C13.6008 14.8748 13.4044 14.5825 13.0107 14.5825L12.9753 14.5834C12.9104 14.5875 12.8547 14.6001 12.8101 14.6168C12.6861 14.559 12.5588 14.5298 12.4264 14.5298C12.2638 14.5298 12.1264 14.5742 12.0353 14.6051C12.0092 14.6127 11.9856 14.621 11.9671 14.6244L11.2311 14.5523C11.2219 14.5507 11.1915 14.5331 11.1552 14.4895V14.4862L11.3146 14.4225C11.2699 13.8956 10.7607 13.5714 10.4766 13.4617C10.464 13.4089 10.4387 13.3561 10.3941 13.3134L10.2356 13.1643L10.0964 13.3302L10.0282 13.4148L8.99806 12.9942L9.66823 13.8303L9.40352 14.2282C9.30656 14.3304 9.41365 14.4326 9.41365 14.4326L9.68673 14.6194L9.97002 14.5147C9.98011 14.5147 9.98856 14.5172 9.99781 14.518C9.98435 14.5607 9.96665 14.7283 9.95481 14.7752L9.46336 14.6788L8.9466 14.9687C8.68106 15.1622 8.64481 15.483 8.74348 15.7025L8.80077 15.8273L8.88252 16.0033L9.06294 15.9287C9.06548 15.9278 9.06802 15.927 9.06965 15.9254C9.00477 16.1314 9.03094 16.3274 9.14723 16.4565L9.25681 16.5938L9.40269 16.7773L9.56286 16.6064C9.61006 16.5595 9.76265 16.3895 9.80985 16.2437L9.8444 16.1322L9.76602 16.0468L9.75335 16.0318L9.84106 15.8876L10.4825 16.0376L10.6267 16.0703L10.7034 15.9446L10.7456 15.8759C10.7531 15.8617 10.7556 15.8591 10.7852 15.8591C10.8079 15.8591 10.8307 15.8617 10.8551 15.8667C11.0971 15.9119 11.3204 15.9346 11.5186 15.9346C11.7108 15.9346 11.8254 15.927 11.9628 15.8818C11.9628 15.8818 12.3076 16.2705 12.3194 16.2855L12.1087 16.9323L12.0994 16.9716C11.6998 17.0034 11.5051 17.0906 11.2699 17.3243C10.9285 16.9875 10.6865 16.9524 9.76856 16.9524C8.67011 16.9524 7.92577 16.3124 7.92577 15.2904V12.7915H14.6124L14.6141 15.2904C14.6149 16.1197 14.1251 16.6977 13.3538 16.8862ZM14.7995 8.75967C14.6975 9.02775 14.6124 9.31846 14.6124 9.60746L14.6132 11.4722C14.2212 11.4068 14.1749 10.9871 14.1731 10.9687L14.1656 10.8833L14.0813 10.8757C13.911 10.8598 13.798 10.7877 13.7028 10.6956C13.5106 10.5046 13.5097 10.1947 13.5106 10.1921C13.5081 10.208 13.299 10.4987 13.5418 10.8162C13.6437 10.9503 13.7913 11.0324 13.9826 11.065C14.0273 11.2979 14.2018 11.6263 14.6132 11.6765V12.5896H13.4566C12.923 12.2948 13.1489 11.7754 13.1599 11.7536L13.2054 11.6548L13.1034 11.6162C12.5259 11.4035 12.6844 10.8305 12.6929 10.8062L12.7164 10.7224L12.6381 10.6855C12.1609 10.466 12.2259 9.87384 12.2318 9.84954C12.0851 9.96763 12.0319 10.2089 12.1331 10.4451C12.0783 10.5071 12.005 10.5825 11.9249 10.6646C11.4309 10.5398 11.4158 10.0883 11.4158 10.0674L11.4149 9.99779L11.35 9.97267C11.1569 9.90146 11.0246 9.79508 10.9596 9.65179C10.8864 9.49354 10.9124 9.32767 10.9327 9.24804C10.9892 9.26063 11.0456 9.26988 11.0996 9.27404C11.1552 9.27988 11.2126 9.28325 11.2699 9.28325H11.2733H11.2775C11.3348 9.28325 11.3913 9.27988 11.4469 9.27404C11.7546 9.24388 12.0994 9.11238 12.4585 8.75883H14.7995V8.75967ZM12.9972 6.87483L13.4541 7.13875H13.4608L13.5755 7.20492C13.3175 7.27613 13.1203 7.40429 12.9551 7.57267C12.9491 7.57771 12.9433 7.58442 12.9373 7.59025C12.8994 7.63046 12.8614 7.67404 12.8261 7.71846C12.8193 7.72683 12.8126 7.73604 12.805 7.74525C12.7696 7.79046 12.7367 7.83658 12.7046 7.88513C12.6996 7.89354 12.6937 7.90192 12.6878 7.90942C12.6499 7.96554 12.6136 8.02588 12.5774 8.08783C12.252 8.64492 11.7327 8.9775 11.2708 8.97833C10.8096 8.9775 10.2904 8.64492 9.96494 8.08783C9.92952 8.0275 9.89415 7.96892 9.85619 7.91192C9.8486 7.90104 9.84186 7.89017 9.83515 7.88092C9.80311 7.83488 9.77106 7.78963 9.73819 7.74696C9.72977 7.73521 9.72215 7.72596 9.71373 7.71592C9.67831 7.67317 9.64206 7.63046 9.60581 7.59108C9.59827 7.58525 9.59319 7.57771 9.5856 7.571C9.41956 7.40263 9.2231 7.27529 8.96431 7.20492L9.08065 7.13875H9.08569L9.5426 6.87483L10.0121 6.60767L11.2665 7.28617L11.2691 7.28367L11.2724 7.28617L12.5268 6.60767L12.9972 6.87483ZM12.3784 6.31275L11.3786 6.83633V4.71696L12.735 4.25959L12.3784 6.31275ZM11.2699 4.48409L9.78286 3.90023C9.90931 3.60286 10.4926 3.34983 11.2699 3.349C12.048 3.34983 12.6313 3.60286 12.7569 3.90023L11.2699 4.48409Z" fill="black"/>
<path d="M29.6842 13.35V9.99571H31.6641V8.77513H26.2627V9.99571H28.2425V13.35H29.6842ZM33.6347 11.4374V8.77513H32.2411V13.35H33.4713L35.874 10.6877V13.35H37.2677V8.77513H36.0374L33.6347 11.4374ZM41.9561 11.6488V13.35H43.3498V8.77513H41.9561V10.4474H39.7167V8.77513H38.3231V13.35H39.7167V11.6488H41.9561ZM47.2307 13.35C47.5477 13.35 47.8361 13.3212 48.1052 13.2443C48.8265 13.0425 49.2969 12.4561 49.2969 11.6584C49.2969 10.8992 48.8936 10.3706 48.2498 10.1303C47.9415 10.015 47.5769 10.0053 47.2307 10.0053H45.7986V8.77513H44.4052V13.35H47.2307ZM46.9902 11.0818C47.1827 11.0818 47.3652 11.0818 47.5286 11.1395C47.7594 11.2163 47.894 11.4085 47.894 11.6392C47.894 11.8795 47.7594 12.0813 47.5382 12.1774C47.3844 12.2447 47.2307 12.2447 46.9902 12.2447H45.7986V11.0818H46.9902ZM51.7957 11.62L53.4586 13.35H55.3132L52.9973 10.9664L55.2269 8.77513H53.4777L51.7957 10.4955H51.4115V8.77513H50.0181V13.35H51.4115V11.62H51.7957ZM58.1806 8.65021C56.3065 8.65021 55.1823 9.70737 55.1823 11.0721C55.1823 12.437 56.3065 13.4942 58.1806 13.4942C60.0457 13.4942 61.1702 12.437 61.1702 11.0721C61.1702 9.70737 60.0457 8.65021 58.1806 8.65021ZM58.1806 12.3793C57.2486 12.3793 56.6532 11.8218 56.6532 11.0721C56.6532 10.3225 57.2486 9.77467 58.1806 9.77467C59.1036 9.77467 59.709 10.3225 59.709 11.0721C59.709 11.8218 59.1036 12.3793 58.1806 12.3793ZM65.8115 8.51562H64.4177V8.97692C62.6686 9.01537 61.6207 9.75542 61.6207 11.0625C61.6207 12.3696 62.6686 13.052 64.4177 13.0905V13.5518H65.8115V13.0905C67.5698 13.052 68.6177 12.3696 68.6177 11.0625C68.6177 9.75542 67.5698 9.01537 65.8115 8.97692V8.51562ZM64.4177 12.1102C63.4565 12.0717 63.0336 11.6777 63.0336 11.0625C63.0336 10.4474 63.4565 10.0053 64.4177 9.96692V12.1102ZM65.8115 9.96692C66.7823 10.0053 67.1952 10.4474 67.1952 11.0625C67.1952 11.6777 66.7823 12.0717 65.8115 12.1102V9.96692ZM73.254 8.51562H71.8602V8.97692C70.1111 9.01537 69.064 9.75542 69.064 11.0625C69.064 12.3696 70.1111 13.052 71.8602 13.0905V13.5518H73.254V13.0905C75.0132 13.052 76.0606 12.3696 76.0606 11.0625C76.0606 9.75542 75.0132 9.01537 73.254 8.97692V8.51562ZM71.8602 12.1102C70.8994 12.0717 70.4765 11.6777 70.4765 11.0625C70.4765 10.4474 70.8994 10.0053 71.8602 9.96692V12.1102ZM73.254 9.96692C74.2248 10.0053 74.6381 10.4474 74.6381 11.0625C74.6381 11.6777 74.2248 12.0717 73.254 12.1102V9.96692Z" fill="white"/>
</g>
<defs>
<clipPath id="clip0_158_112">
<rect width="76.0833" height="20" fill="white" transform="translate(0 0.5)"/>
</clipPath>
</defs>
</svg>
