<svg width="19" height="7" viewBox="0 0 19 7" fill="none" xmlns="http://www.w3.org/2000/svg">
<g clip-path="url(#clip0_158_157)">
<path d="M7.0772 0.621119L4.65556 6.39382H3.07563L1.88394 1.78694C1.81159 1.50318 1.74868 1.39923 1.52864 1.27968C1.1694 1.08496 0.576155 0.902275 0.0541992 0.788888L0.0896513 0.621119H2.63286C2.95704 0.621119 3.24846 0.836726 3.32206 1.20971L3.95143 4.55008L5.5069 0.621023H7.0772V0.621119ZM13.2676 4.50908C13.274 2.98549 11.159 2.90155 11.1736 2.22095C11.1781 2.01381 11.3755 1.79358 11.8076 1.73737C12.0217 1.70936 12.6118 1.68799 13.281 1.99571L13.5436 0.771562C13.1839 0.641139 12.7212 0.515625 12.1455 0.515625C10.6682 0.515625 9.6285 1.30028 9.61974 2.42385C9.6102 3.2549 10.3618 3.71865 10.9281 3.9948C11.5106 4.27759 11.7061 4.45932 11.7039 4.71227C11.6998 5.0995 11.2393 5.27044 10.8089 5.27718C10.0577 5.28873 9.62176 5.07409 9.27427 4.91267L9.00337 6.17734C9.35259 6.33741 9.99719 6.47707 10.6655 6.4841C12.2357 6.4841 13.2628 5.70917 13.2676 4.50908ZM17.1687 6.39382H18.5511L17.3445 0.621119H16.0686C15.7817 0.621119 15.5397 0.788022 15.4325 1.04463L13.1897 6.39382H14.7591L15.0707 5.53158H16.9883L17.1687 6.39382ZM15.501 4.34843L16.2877 2.181L16.7405 4.34843H15.501ZM9.21271 0.621119L7.9768 6.39382H6.48222L7.71861 0.621119H9.21271Z" fill="white"/>
</g>
<defs>
<clipPath id="clip0_158_157">
<rect width="19" height="7" fill="white"/>
</clipPath>
</defs>
</svg>
