<svg width="36" height="28" viewBox="0 0 36 28" fill="none" xmlns="http://www.w3.org/2000/svg">
<path d="M30.0155 2.35563C27.8053 1.32202 25.4363 0.5608 22.9589 0.124976C22.9141 0.116141 22.8693 0.138227 22.8448 0.179454C22.54 0.731596 22.2019 1.45306 21.9665 2.01845C19.3013 1.61208 16.6505 1.61208 14.0402 2.01845C13.8048 1.43981 13.4538 0.731596 13.149 0.179454C13.1244 0.138227 13.0796 0.117614 13.0348 0.124976C10.5589 0.559327 8.18983 1.32055 5.97823 2.35563C5.95945 2.36299 5.94211 2.37771 5.932 2.39538C1.43802 9.239 0.20582 15.9148 0.80964 22.5081C0.812529 22.5405 0.829864 22.5714 0.854421 22.5905C3.82008 24.8109 6.69183 26.1581 9.51159 27.0504C9.55637 27.0651 9.60404 27.0474 9.63293 27.0091C10.3003 26.0815 10.894 25.1024 11.4039 24.0732C11.4343 24.0129 11.4054 23.9407 11.3433 23.9171C10.4 23.552 9.50292 23.1073 8.63908 22.6038C8.57119 22.5626 8.56541 22.4639 8.62753 22.4153C8.80954 22.2769 8.99155 22.1326 9.1649 21.9869C9.19668 21.9604 9.24001 21.9545 9.27757 21.9721C14.9518 24.6121 21.094 24.6121 26.7002 21.9721C26.7378 21.9545 26.7811 21.9589 26.8144 21.9869C26.9877 22.1326 27.1697 22.2784 27.3532 22.4168C27.4167 22.4639 27.4124 22.564 27.3431 22.6053C26.4792 23.1191 25.5822 23.5549 24.6374 23.9171C24.5753 23.9407 24.5493 24.0143 24.5782 24.0747C25.0982 25.1024 25.6934 26.0815 26.3478 27.0091C26.3752 27.0489 26.4243 27.0651 26.4691 27.0518C29.3019 26.1581 32.1751 24.8109 35.1393 22.592C35.1653 22.5729 35.1812 22.5434 35.1841 22.511C35.9063 14.8885 33.9735 8.26723 30.0588 2.39833C30.0516 2.37772 30.0343 2.36299 30.0155 2.35563ZM12.2519 18.4944C10.543 18.4944 9.13601 16.8954 9.13601 14.9327C9.13601 12.97 10.5155 11.371 12.2519 11.371C14.0012 11.371 15.3952 12.9833 15.3678 14.9327C15.3678 16.8968 13.9868 18.4944 12.2519 18.4944ZM23.7722 18.4944C22.0647 18.4944 20.6563 16.8954 20.6563 14.9327C20.6563 12.97 22.0358 11.371 23.7722 11.371C25.5215 11.371 26.9155 12.9833 26.888 14.9327C26.888 16.8968 25.5215 18.4944 23.7722 18.4944Z" fill="white"/>
</svg>
