<svg width="28" height="28" viewBox="0 0 28 28" fill="none" xmlns="http://www.w3.org/2000/svg">
<path fill-rule="evenodd" clip-rule="evenodd" d="M13.9998 0.123047C6.6365 0.123047 0.666504 6.15275 0.666504 13.5897C0.666504 21.0267 6.6365 27.0564 13.9998 27.0564C21.3632 27.0564 27.3332 21.0267 27.3332 13.5897C27.3332 6.15275 21.3632 0.123047 13.9998 0.123047ZM20.1798 9.2815C19.9798 11.4104 19.1109 16.5782 18.6698 18.9629C18.4832 19.9729 18.1143 20.3107 17.7587 20.3432C16.9843 20.4151 16.3965 19.8259 15.6465 19.3299C14.4732 18.5533 13.8098 18.0696 12.6709 17.311C11.3543 16.4345 12.2076 15.9531 12.9576 15.1664C13.1543 14.9599 16.5654 11.8256 16.6321 11.5417C16.6398 11.5057 16.6487 11.3733 16.5698 11.3037C16.4909 11.2342 16.3765 11.2577 16.2943 11.2768C16.1765 11.3037 14.3021 12.555 10.6698 15.0306C10.1376 15.3999 9.65539 15.5794 9.22317 15.5704C8.74761 15.5603 7.83206 15.2989 7.15095 15.0744C6.3165 14.8006 5.65206 14.6547 5.70984 14.1901C5.73984 13.9477 6.06984 13.6997 6.70095 13.4461C10.5876 11.7358 13.1798 10.608 14.4765 10.0626C18.1798 8.50717 18.9487 8.23671 19.4509 8.22774C20.0798 8.21876 20.2309 8.74284 20.1798 9.2815Z" fill="white"/>
</svg>
